# xmcd CD database file
#
# Track frame offsets:
#	150
#	10262
#	20312
#	30362
#	40412
#	50630
#	61262
#	71912
#	82712
#	93362
#	104125
#	115262
#	126212
#	137462
#	148712
#	159662
#	170012
#	180362
#	190712
#	201062
#	211412
#	222812
#	234212
#	245612
#
# Disc length: 3425 seconds
#
# Revision: 0
# Processed by: cddbd v1.4PL0 Copyright (c) Steve Scherf et al.
# Submitted via: CDex 1.50
#
DISCID=4b0d5f18
DTITLE=Pat Coil (Contemorary Jazz) (OM-CJ7B) - Jazz Sports
DYEAR=1997
DGENRE=Jazz
TTITLE0=Jazz Sports
TTITLE1=Jazz Sports
TTITLE2=Jazz Sports
TTITLE3=Jazz Sports
TTITLE4=Jazz Sports
TTITLE5=Jazz Sports
TTITLE6=Jazz Sports
TTITLE7=Jazz Sports
TTITLE8=Jazz Sports
TTITLE9=Jazz Sports
TTITLE10=Jazz Sports
TTITLE11=Jazz Sports
TTITLE12=Jazz Sports
TTITLE13=Jazz Sports
TTITLE14=Jazz Sports
TTITLE15=Jazz Sports
TTITLE16=Jazz Sports
TTITLE17=Jazz Sports
TTITLE18=Jazz Sports
TTITLE19=Jazz Sports
TTITLE20=Jazz Sports
TTITLE21=Jazz Sports
TTITLE22=Jazz Sports
TTITLE23=Jazz Sports
EXTD=YEAR: 1997
EXTT0=
EXTT1=
EXTT2=
EXTT3=
EXTT4=
EXTT5=
EXTT6=
EXTT7=
EXTT8=
EXTT9=
EXTT10=
EXTT11=
EXTT12=
EXTT13=
EXTT14=
EXTT15=
EXTT16=
EXTT17=
EXTT18=
EXTT19=
EXTT20=
EXTT21=
EXTT22=
EXTT23=
PLAYORDER=
